<?xml version="1.0" encoding="UTF-8"?>
<svg width="300px" height="300px" viewBox="0 0 300 300" version="1.1" xmlns="http://www.w3.org/2000/svg" xmlns:xlink="http://www.w3.org/1999/xlink">
    <!-- Generator: Sketch 61 (89581) - https://sketch.com -->
    <title>Video</title>
    <desc>Created with Sketch.</desc>
    <g id="Video" stroke="none" stroke-width="1" fill="none" fill-rule="evenodd">
        <g id="video-player" fill-rule="nonzero">
            <circle id="Oval" fill="#FFD600" cx="150" cy="150" r="150"></circle>
            <path d="M215.454492,73.6365234 C227.508984,73.6365234 237.272461,83.4 237.272461,95.4544922 L237.272461,204.545508 C237.272461,216.6 227.508984,226.363477 215.454492,226.363477 L84.5455078,226.363477 C72.4910156,226.363477 62.7275391,216.6 62.7275391,204.545508 L62.7275391,95.4544922 C62.7275391,83.4 72.4910156,73.6365234 84.5455078,73.6365234 L215.454492,73.6365234 Z" id="Path" fill="#4C2720"></path>
            <g id="Group" transform="translate(62.695312, 114.257812)" fill="#FFFFFF">
                <path d="M21.8501953,112.105664 L152.75918,112.105664 C164.808398,112.105664 174.577148,102.339258 174.577148,90.2876953 L174.577148,73.9242187 L0.0322265625,73.9242187 L0.0322265625,90.2876953 C0.0322265625,102.339258 9.80097656,112.105664 21.8501953,112.105664 Z" id="Path"></path>
                <polygon id="Path" points="70.9412109 0.287695313 114.577148 22.1056641 70.9412109 43.9242188"></polygon>
            </g>
            <path d="M207.272461,204.545508 L130.630664,204.545508 C129.365039,198.329883 123.856055,193.636523 117.272461,193.636523 C110.688867,193.636523 105.176953,198.329883 103.914258,204.545508 L87.2724609,204.545508 L87.2724609,210 L103.914258,210 C105.179883,216.215625 110.688867,220.908984 117.272461,220.908984 C123.856055,220.908984 129.367969,216.215625 130.630664,210 L207.272461,210 L207.272461,204.545508 Z M117.272461,215.454492 C112.761328,215.454492 109.09043,211.783594 109.09043,207.272461 C109.09043,202.761328 112.761328,199.09043 117.272461,199.09043 C121.783594,199.09043 125.454492,202.761328 125.454492,207.272461 C125.454492,211.783594 121.783594,215.454492 117.272461,215.454492 Z" id="Shape" fill="#FFD600"></path>
            <path d="M154.429102,73.6365234 L84.5455078,73.6365234 C72.4910156,73.6365234 62.7275391,83.4 62.7275391,95.4544922 L62.7275391,165.338086 L154.429102,73.6365234 Z" id="Path" fill="#804B1C"></path>
        </g>
    </g>
</svg>